UNKNOWN
version=1
nRows=51
nColumns=9
inDegrees=no
endheader
time	time	pelvis_tilt	hip_flexion_r	knee_angle_r	ankle_angle_r	hip_flexion_l	knee_angle_l	ankle_angle_l
    264.00000000	      7.01000000	     -2.44841500	    -11.41118732	    -10.33322387	      4.35912994	      3.15211638	    -63.10942949	    -13.63300278
    265.00000000	      7.02000000	     -2.48846155	    -12.30552059	     -9.97123570	      4.48869558	      4.86350982	    -62.19835486	    -13.28185868
    266.00000000	      7.03000000	     -2.33802652	    -13.46939620	     -8.71995729	      4.63209252	      6.47737658	    -60.70315650	    -11.86209505
    267.00000000	      7.04000000	     -2.54786972	    -14.24836879	     -8.44313201	      4.72427639	      7.98523440	    -59.07249356	    -11.42197047
    268.00000000	      7.05000000	     -2.33342868	    -15.32827389	     -7.12384062	      4.70142144	      9.38687345	    -56.74857294	     -9.38273864
    269.00000000	      7.06000000	     -2.78404724	    -16.07895033	     -6.88997611	      4.79739999	     10.63982249	    -54.50744993	     -8.94162448
    270.00000000	      7.07000000	     -2.69668755	    -17.08817444	     -5.77323899	      4.03852612	     11.61329820	    -51.54191744	     -5.14977600
    271.00000000	      7.08000000	     -3.33284587	    -17.98505143	     -5.30279952	      4.37503418	     12.58148559	    -48.83205173	     -4.84152316
    272.00000000	      7.09000000	     -3.94366186	    -18.84913020	     -4.77650901	      4.67873124	     13.44299764	    -45.71329599	     -4.39323895
    273.00000000	      7.10000000	     -3.75063834	    -20.08418020	     -3.72975806	      4.79984263	     13.30923244	    -41.45941036	     -2.00684158
    274.00000000	      7.11000000	     -4.63793608	    -20.91583033	     -3.24264065	      5.06876268	     13.86352236	    -37.83433038	     -1.49324729
    275.00000000	      7.12000000	     -5.05315857	    -21.68610162	     -2.96466102	      5.19723032	     14.04635731	    -33.30619116	     -0.72806726
    276.00000000	      7.13000000	     -5.23827184	    -22.60368988	     -2.44506829	      5.41964214	     13.71189829	    -28.19517570	      0.18211196
    277.00000000	      7.14000000	     -6.34882607	    -23.52114702	     -1.79416052	      5.72005398	     13.80544664	    -24.11082201	      0.89232205
    278.00000000	      7.15000000	     -6.46839856	    -24.92667414	     -1.46057304	      5.98586975	     12.56059356	    -18.66698217	      1.19173537
    279.00000000	      7.16000000	     -7.04337166	    -26.88862730	     -1.48664130	      6.07893466	     10.60128781	    -13.75618577	      2.28836954
    280.00000000	      7.17000000	     -7.92528563	    -27.70360766	     -0.97837554	      6.34117494	     10.76191772	    -10.18909904	      3.04748463
    281.00000000	      7.18000000	     -8.78798552	    -28.33040633	     -1.01477888	      6.42035599	     10.71183235	     -6.58055473	      3.57936874
    282.00000000	      7.19000000	    -10.01502092	    -29.51345602	     -2.25822776	      7.04357253	      8.56460455	     -2.20462860	      1.08789441
    283.00000000	      7.20000000	     -9.66088195	    -30.24471086	     -2.52073801	      7.04890182	      8.27495495	      0.64374554	      2.22417130
    284.00000000	      7.21000000	     -9.70930713	    -30.89197505	     -2.73751340	      7.13737329	      8.21105881	      2.68796843	      2.57464152
    285.00000000	      7.22000000	     -9.77343624	    -31.32098439	     -3.29352992	      7.09494319	      8.41645352	      3.35635034	      2.59359713
    286.00000000	      7.23000000	     -9.88884542	    -31.92810747	     -3.91888608	      7.06021030	      8.42213436	      3.27012192	      2.53092549
    287.00000000	      7.24000000	     -9.72851252	    -32.20608243	     -5.61251418	      7.03964049	      8.28676750	      2.57860806	      2.42361635
    288.00000000	      7.25000000	     -9.69274710	    -32.63523817	     -6.72939992	      7.16506087	      8.18344925	      1.16843799	      2.30059253
    289.00000000	      7.26000000	     -9.67377504	    -33.09740757	     -8.01502219	      7.31945282	      8.10844642	     -0.74853427	      2.19252099
    290.00000000	      7.27000000	     -8.55167734	    -33.69912192	     -8.61371345	      8.72763055	      8.03411946	     -2.07920623	      3.03014241
    291.00000000	      7.28000000	     -6.61762887	    -34.29301580	     -8.25627941	      9.49781428	      8.75829519	     -3.39408843	      2.48442460
    292.00000000	      7.29000000	     -6.39548314	    -33.89522405	    -11.00047739	      8.50160301	      8.36056637	     -4.86570411	      1.63508285
    293.00000000	      7.30000000	     -6.56229379	    -32.28472940	    -16.83739863	      6.19732103	      6.87243044	     -5.52654412	      0.56015479
    294.00000000	      7.31000000	     -6.35508038	    -31.11906350	    -20.99602437	      4.24533885	      6.20855993	     -6.83193424	     -0.96504652
    295.00000000	      7.32000000	     -4.54911353	    -30.86219808	    -20.46202758	      3.55659504	      7.18784486	     -7.07579086	     -4.15426025
    296.00000000	      7.33000000	     -5.69604066	    -29.90091450	    -25.70065288	     -1.33288247	      5.11443278	     -7.93071918	     -5.66731914
    297.00000000	      7.34000000	     -5.12028311	    -28.86599167	    -29.32116542	     -4.46041737	      4.40349666	     -9.24664284	     -5.78178616
    298.00000000	      7.35000000	     -3.89748481	    -27.40275865	    -32.65819711	     -9.34064047	      3.98959892	    -10.50380837	     -4.92658776
    299.00000000	      7.36000000	     -2.90001420	    -25.72170997	    -36.31141697	    -13.89528997	      3.53034672	    -11.73548069	     -4.13212809
    300.00000000	      7.37000000	     -2.01069701	    -24.00148919	    -39.82893827	    -18.38279228	      3.00371373	    -12.92585971	     -3.21181621
    301.00000000	      7.38000000	     -1.22500349	    -22.12139001	    -43.12426903	    -22.61262913	      2.44338596	    -13.53015504	     -2.10819655
    302.00000000	      7.39000000	     -0.75179179	    -20.22529875	    -46.18581653	    -25.49718154	      1.85834822	    -14.05225621	     -1.07413918
    303.00000000	      7.40000000	     -0.76592751	    -18.88136316	    -48.89933269	    -26.09811300	      0.86422648	    -14.41671100	     -0.69407301
    304.00000000	      7.41000000	     -0.33910396	    -17.31861364	    -51.33169740	    -25.06591225	      0.15075474	    -14.69828518	      0.44863336
    305.00000000	      7.42000000	     -0.76930692	    -14.87450733	    -54.05938073	    -24.68064506	     -0.78712975	    -14.42018433	      1.18409114
    306.00000000	      7.43000000	     -1.35953680	    -12.98515322	    -56.42905266	    -24.18010200	     -2.20208356	    -14.20301718	      1.40051289
    307.00000000	      7.44000000	     -1.75969841	    -11.34980875	    -57.94002905	    -21.05495251	     -3.25812605	    -13.77694108	      1.86327175
    308.00000000	      7.45000000	     -2.15113516	     -9.47268123	    -59.30790933	    -18.54479882	     -4.31009487	    -13.26278058	      2.24498234
    309.00000000	      7.46000000	     -2.50606295	     -7.60891339	    -60.34059144	    -16.81343039	     -5.48597075	    -12.57236175	      2.56686233
    310.00000000	      7.47000000	     -2.60570589	     -4.87576807	    -61.61818884	    -14.76483092	     -6.02057949	    -11.97197920	      2.77597371
    311.00000000	      7.48000000	     -2.84786401	     -3.20599887	    -61.94881852	    -14.36363517	     -7.29163146	    -11.03949280	      3.13126181
    312.00000000	      7.49000000	     -3.03200554	     -1.56098083	    -61.99084113	    -13.26477245	     -8.46892460	    -10.16467842	      3.34500871
    313.00000000	      7.50000000	     -3.13955829	      0.15804643	    -61.81700102	    -12.39014524	     -9.48575299	     -9.34415291	      3.50048129
    314.00000000	      7.51000000	     -3.21115864	      1.77473425	    -61.41123851	    -11.63304741	    -10.52537477	     -8.58658521	      3.67079895
